<svg xmlns="http://www.w3.org/2000/svg" xmlns:xlink="http://www.w3.org/1999/xlink" viewBox="0,0,256,256" width="48px" height="48px" fill-rule="nonzero"><g fill="#0095f6" fill-rule="nonzero" stroke="none" stroke-width="1" stroke-linecap="butt" stroke-linejoin="miter" stroke-miterlimit="10" stroke-dasharray="" stroke-dashoffset="0" font-family="none" font-weight="none" font-size="none" text-anchor="none" style="mix-blend-mode: normal"><g transform="scale(4,4)"><path d="M32,10c12.131,0 22,9.869 22,22c0,10.946 -8.036,20.047 -18.518,21.722v-16.238h4.991l0.747,-5.504h-5.738c0,0 0,-3.323 0,-4.167c0,-1.651 1.116,-2.498 2.301,-2.498c1.185,0 3.639,-0.034 3.639,-0.034v-5.324c0,0 -2.183,-0.252 -4.413,-0.252c-1.873,0 -3.937,0.528 -5.589,2.228c-1.68,1.728 -1.922,3.785 -1.922,6.9c0,0.901 0,3.148 0,3.148h-5.003v5.504h5.003v16.37c-10.957,-1.248 -19.498,-10.571 -19.498,-21.855c0,-12.131 9.869,-22 22,-22z"></path></g></g></svg>